<mxfile host="app.diagrams.net" modified="2024-06-06T09:48:37.051Z" agent="Mozilla/5.0 (Windows NT 10.0; Win64; x64) AppleWebKit/537.36 (KHTML, like Gecko) Chrome/125.0.0.0 Safari/537.36" etag="ZaouXFLD45h6Y-k4eWyz" version="24.4.14" type="github">
  <diagram name="第 1 页" id="G_-WLCnUa0WzaMfeG8KN">
    <mxGraphModel dx="1434" dy="1925" grid="1" gridSize="10" guides="1" tooltips="1" connect="1" arrows="1" fold="1" page="1" pageScale="1" pageWidth="827" pageHeight="1169" math="0" shadow="0">
      <root>
        <mxCell id="0" />
        <mxCell id="1" parent="0" />
        <mxCell id="aesuAlMHfipvGWI38JMw-1" value="&lt;font style=&quot;font-size: 18px;&quot;&gt;用户&lt;/font&gt;" style="shape=umlActor;verticalLabelPosition=bottom;verticalAlign=top;html=1;outlineConnect=0;" vertex="1" parent="1">
          <mxGeometry x="100" y="-492.5" width="50" height="100" as="geometry" />
        </mxCell>
        <mxCell id="aesuAlMHfipvGWI38JMw-5" value="" style="rounded=0;whiteSpace=wrap;html=1;strokeWidth=2;" vertex="1" parent="1">
          <mxGeometry x="280" y="-730" width="370" height="560" as="geometry" />
        </mxCell>
        <mxCell id="aesuAlMHfipvGWI38JMw-6" value="&lt;font style=&quot;font-size: 18px;&quot;&gt;首页&lt;/font&gt;" style="ellipse;whiteSpace=wrap;html=1;strokeWidth=2;" vertex="1" parent="1">
          <mxGeometry x="314" y="-634.5" width="100" height="50" as="geometry" />
        </mxCell>
        <mxCell id="aesuAlMHfipvGWI38JMw-8" value="&lt;span style=&quot;font-size: 18px;&quot;&gt;个人页面&lt;/span&gt;" style="ellipse;whiteSpace=wrap;html=1;strokeWidth=2;" vertex="1" parent="1">
          <mxGeometry x="314" y="-340" width="100" height="50" as="geometry" />
        </mxCell>
        <mxCell id="aesuAlMHfipvGWI38JMw-11" style="rounded=0;orthogonalLoop=1;jettySize=auto;html=1;entryX=0;entryY=0.5;entryDx=0;entryDy=0;strokeWidth=2;exitX=1;exitY=0.3333333333333333;exitDx=0;exitDy=0;exitPerimeter=0;" edge="1" parent="1" source="aesuAlMHfipvGWI38JMw-1" target="aesuAlMHfipvGWI38JMw-6">
          <mxGeometry relative="1" as="geometry">
            <mxPoint x="160" y="-530" as="sourcePoint" />
          </mxGeometry>
        </mxCell>
        <mxCell id="aesuAlMHfipvGWI38JMw-12" style="rounded=0;orthogonalLoop=1;jettySize=auto;html=1;entryX=0;entryY=0.5;entryDx=0;entryDy=0;strokeWidth=2;exitX=1;exitY=0.3333333333333333;exitDx=0;exitDy=0;exitPerimeter=0;" edge="1" parent="1" source="aesuAlMHfipvGWI38JMw-1" target="aesuAlMHfipvGWI38JMw-8">
          <mxGeometry relative="1" as="geometry">
            <mxPoint x="160" y="-455" as="sourcePoint" />
            <mxPoint x="324" y="-599" as="targetPoint" />
          </mxGeometry>
        </mxCell>
      </root>
    </mxGraphModel>
  </diagram>
</mxfile>
